<svg xmlns="http://www.w3.org/2000/svg" viewBox="0 0 48 48">
  <rect width="48" height="48" rx="10" fill="#0f1729"/>
  <g fill="none" stroke="#d8b25c" stroke-width="2.4" stroke-linejoin="round" stroke-linecap="round">
    <path d="M24 15c-5-3.4-12-3.4-17-1.4v20.8c5-2 12-2 17 1.4"/>
    <path d="M24 15c5-3.4 12-3.4 17-1.4v20.8c-5-2-12-2-17 1.4"/>
    <path d="M24 15v20.8"/>
  </g>
  <path d="M24 4.6c0 3.1 1.4 4.5 4.5 4.5-3.1 0-4.5 1.4-4.5 4.5 0-3.1-1.4-4.5-4.5-4.5 3.1 0 4.5-1.4 4.5-4.5z" fill="#d8b25c"/>
</svg>
